<svg width="28" height="28" viewBox="0 0 28 28" fill="none" xmlns="http://www.w3.org/2000/svg">
<path d="M28 14C28 6.26801 21.732 0 14 0C6.26801 0 0 6.26801 0 14C0 21.732 6.26801 28 14 28C21.732 28 28 21.732 28 14ZM14.7071 7.29289C15.0976 7.68342 15.0976 8.31658 14.7071 8.70711L10.4142 13L20 13C20.5523 13 21 13.4477 21 14C21 14.5523 20.5523 15 20 15L10.4142 15L14.7071 19.2929C15.0976 19.6834 15.0976 20.3166 14.7071 20.7071C14.3166 21.0976 13.6834 21.0976 13.2929 20.7071L7.29289 14.7071C6.90237 14.3166 6.90237 13.6834 7.29289 13.2929L13.2929 7.29289C13.6834 6.90237 14.3166 6.90237 14.7071 7.29289Z" fill="#8B8B8B"/>
</svg>
